<svg xmlns="http://www.w3.org/2000/svg" xmlns:v="https://svgstorm.com"
viewBox = "0 0 499 471"
width="499"
height="471">
<g fill="None" fill-opacity="0.0" stroke="#000000" stroke-opacity="0.00" stroke-width="0.3"><path d="
M 0.00 471.00 
L 499.00 471.00
L 499.00 0.00
L 0.00 0.00
L 0.00 471.00
M 47.00 152.00 
C 44.83 183.95 46.87 216.97 47.00 249.00 C 47.13 281.03 44.47 314.08 47.00 346.00
C 48.07 359.50 60.09 368.51 73.00 369.00
C 110.24 370.42 147.72 368.75 185.00 369.00 C 222.28 369.25 259.73 369.75 297.00 369.00
C 306.29 368.81 313.59 366.59 319.75 358.75 C 325.91 350.91 324.94 341.25 325.00 331.00 C 325.06 320.75 324.62 307.37 325.00 297.00 C 325.38 286.63 324.00 273.94 325.00 264.00 C 326.00 254.06 319.88 237.66 332.00 237.00
C 339.11 236.61 357.57 234.16 363.00 238.00
C 369.50 242.59 363.39 260.93 365.00 270.00 C 366.61 279.07 364.29 294.02 365.00 304.00 C 365.71 313.98 364.73 328.01 365.00 338.00 C 365.27 347.99 363.40 358.38 360.02 367.02 C 356.64 375.67 352.62 381.10 346.75 387.75 C 340.88 394.39 334.44 398.31 326.31 402.31 C 318.17 406.30 309.14 408.75 299.00 409.00 C 288.86 409.25 275.80 408.89 265.00 409.00 C 254.20 409.11 242.11 408.95 231.00 409.00 C 219.89 409.05 208.27 408.97 197.00 409.00 C 185.73 409.03 173.26 408.98 162.00 409.00 C 150.74 409.02 139.08 408.98 128.00 409.00 C 116.92 409.02 104.73 408.97 94.00 409.00 C 83.27 409.03 70.98 409.40 61.33 407.67 C 51.68 405.94 44.83 402.74 37.25 397.75 C 29.67 392.76 24.62 388.20 19.25 380.75 C 13.87 373.30 11.35 366.42 9.01 356.99 C 6.67 347.56 6.84 335.70 7.00 325.00 C 7.16 314.30 6.93 302.03 7.00 291.00 C 7.07 279.97 6.96 268.15 7.00 257.00 C 7.04 245.85 6.97 234.15 7.00 223.00 C 7.03 211.85 6.96 198.92 7.00 188.00 C 7.04 177.08 6.92 164.26 7.00 154.00 C 7.08 143.74 9.81 134.94 13.75 126.75 C 17.70 118.57 20.71 112.68 27.75 106.75 C 34.79 100.83 39.39 96.86 48.23 93.23 C 57.07 89.60 67.55 88.00 78.00 88.00 C 88.45 88.00 101.07 88.00 112.00 88.00 C 122.93 88.00 134.85 88.01 146.00 88.00 C 157.15 87.99 168.76 88.02 180.00 88.00 C 191.24 87.98 202.74 88.05 214.00 88.00 C 225.26 87.95 237.87 88.10 249.00 88.00 C 260.13 87.90 272.28 88.23 283.00 88.00 C 293.72 87.77 305.28 88.00 314.67 90.33 C 324.07 92.66 329.95 96.52 337.25 101.75 C 344.54 106.99 349.18 111.63 353.92 119.08 C 358.66 126.53 361.78 134.73 363.78 143.22
C 353.03 144.02 339.73 143.98 329.00 144.00 C 318.27 144.02 318.14 131.82 307.32 129.68 C 296.51 127.54 284.62 127.87 273.00 128.00 C 261.38 128.13 249.74 127.93 238.00 128.00 C 226.26 128.07 213.80 127.95 202.00 128.00 C 190.20 128.05 177.72 127.94 166.00 128.00 C 154.28 128.06 142.54 127.89 131.00 128.00 C 119.46 128.11 106.18 127.78 95.00 128.00 C 83.82 128.22 71.11 126.33 61.77 130.77 C 52.43 135.21 48.09 142.47 47.00 152.00
M 422.00 109.00 
C 422.00 126.00 422.00 143.00 422.00 160.00
C 422.00 163.97 421.15 166.98 424.00 169.00
C 429.90 171.85 439.37 167.68 446.00 169.00 C 452.63 170.32 461.12 168.34 468.00 169.00 C 474.88 169.66 482.82 168.12 489.00 170.00
C 500.31 173.43 496.75 192.25 496.00 204.00 C 495.25 215.75 474.95 213.33 464.00 213.00 C 453.05 212.67 433.71 213.24 422.00 213.00
C 422.00 214.00 422.00 215.00 422.00 216.00
C 421.43 217.95 422.00 220.96 422.00 223.00
C 422.00 239.96 422.65 257.06 422.00 274.00
C 421.54 286.15 413.09 288.18 403.00 287.00 C 392.91 285.82 379.42 290.72 378.01 278.99 C 376.60 267.26 378.73 257.38 378.00 246.00 C 377.27 234.62 378.55 224.29 378.00 213.00
C 366.51 212.50 347.76 213.67 337.00 213.00 C 326.24 212.33 304.39 217.46 303.01 204.99 C 301.62 192.52 299.59 174.89 310.00 170.00
C 316.34 168.43 324.05 169.57 331.00 169.00 C 337.95 168.43 346.27 170.37 353.00 169.00 C 359.73 167.63 369.95 171.92 376.00 169.00
C 381.60 165.04 377.24 149.19 378.00 141.00 C 378.76 132.81 378.66 120.16 378.00 111.00 C 377.34 101.84 379.61 92.03 391.00 94.00 C 402.39 95.97 410.05 91.41 420.00 96.00
C 421.34 100.13 422.58 104.35 422.00 109.00
M 267.00 230.00 
C 272.56 231.55 273.59 233.96 274.00 240.00
C 274.42 246.20 274.24 252.79 274.00 259.00
C 273.41 274.52 262.95 272.18 250.00 272.00 C 237.05 271.82 224.89 271.95 212.00 272.00 C 199.11 272.05 186.98 271.67 174.00 272.00 C 161.02 272.33 150.40 271.15 137.00 272.00 C 123.60 272.85 113.37 270.11 99.00 272.00 C 84.63 273.89 79.07 266.62 81.00 252.00 C 82.93 237.38 77.90 229.00 96.00 229.00
C 114.82 229.00 134.24 228.44 153.00 229.00 C 171.76 229.56 191.45 227.50 210.00 229.00 C 228.55 230.50 249.72 225.18 267.00 230.00
M 274.00 304.00 
C 274.29 311.64 274.89 321.21 273.00 328.00
C 269.47 340.66 249.95 333.71 238.00 335.00 C 226.05 336.29 208.93 334.30 196.00 335.00 C 183.07 335.70 166.04 334.40 153.00 335.00 C 139.96 335.60 123.38 334.10 111.00 335.00 C 98.62 335.90 79.61 337.18 81.00 323.00 C 82.39 308.82 75.05 292.15 92.00 291.00
C 119.18 289.15 146.74 291.69 174.00 291.00 C 201.26 290.31 228.72 291.00 256.00 291.00
C 258.62 291.00 261.40 290.73 264.00 291.00
C 272.27 291.85 273.70 296.17 274.00 304.00 Z"/>
</g>
<g fill="None" fill-opacity="0.0" stroke="#FFFFFF" stroke-opacity="1.00" stroke-width="0.3"><path d="
M 363.00 238.00 
C 359.15 236.14 351.44 238.24 347.00 238.00 C 342.56 237.76 335.80 237.16 332.00 237.00
C 319.88 237.66 326.00 254.06 325.00 264.00 C 324.00 273.94 325.38 286.63 325.00 297.00 C 324.62 307.37 325.06 320.75 325.00 331.00 C 324.94 341.25 325.91 350.91 319.75 358.75 C 313.59 366.59 306.29 368.81 297.00 369.00
C 261.38 373.30 221.53 370.28 185.00 370.00 C 148.47 369.72 108.43 374.06 73.00 369.00
C 60.09 368.51 48.07 359.50 47.00 346.00
C 43.12 325.91 46.69 303.13 46.00 282.00 C 45.31 260.87 45.42 238.21 46.00 217.00 C 46.58 195.79 43.38 172.21 47.00 152.00
C 48.09 142.47 52.43 135.21 61.77 130.77 C 71.11 126.33 83.82 128.22 95.00 128.00 C 106.18 127.78 119.46 128.11 131.00 128.00 C 142.54 127.89 154.28 128.06 166.00 128.00 C 177.72 127.94 190.20 128.05 202.00 128.00 C 213.80 127.95 226.26 128.07 238.00 128.00 C 249.74 127.93 261.38 128.13 273.00 128.00 C 284.62 127.87 296.51 127.54 307.32 129.68 C 318.14 131.82 318.27 144.02 329.00 144.00 C 339.73 143.98 353.03 144.02 364.00 144.00
C 361.78 134.73 358.66 126.53 353.92 119.08 C 349.18 111.63 344.54 106.99 337.25 101.75 C 329.95 96.52 324.07 92.66 314.67 90.33 C 305.28 88.00 293.72 87.77 283.00 88.00 C 272.28 88.23 260.13 87.90 249.00 88.00 C 237.87 88.10 225.26 87.95 214.00 88.00 C 202.74 88.05 191.24 87.98 180.00 88.00 C 168.76 88.02 157.15 87.99 146.00 88.00 C 134.85 88.01 122.93 88.00 112.00 88.00 C 101.07 88.00 88.45 88.00 78.00 88.00 C 67.55 88.00 57.07 89.60 48.23 93.23 C 39.39 96.86 34.79 100.83 27.75 106.75 C 20.71 112.68 17.70 118.57 13.75 126.75 C 9.81 134.94 7.08 143.74 7.00 154.00 C 6.92 164.26 7.04 177.08 7.00 188.00 C 6.96 198.92 7.03 211.85 7.00 223.00 C 6.97 234.15 7.04 245.85 7.00 257.00 C 6.96 268.15 7.07 279.97 7.00 291.00 C 6.93 302.03 7.16 314.30 7.00 325.00 C 6.84 335.70 6.67 347.56 9.01 356.99 C 11.35 366.42 13.87 373.30 19.25 380.75 C 24.62 388.20 29.67 392.76 37.25 397.75 C 44.83 402.74 51.68 405.94 61.33 407.67 C 70.98 409.40 83.27 409.03 94.00 409.00 C 104.73 408.97 116.92 409.02 128.00 409.00 C 139.08 408.98 150.74 409.02 162.00 409.00 C 173.26 408.98 185.73 409.03 197.00 409.00 C 208.27 408.97 219.89 409.05 231.00 409.00 C 242.11 408.95 254.20 409.11 265.00 409.00 C 275.80 408.89 288.86 409.25 299.00 409.00 C 309.14 408.75 318.17 406.30 326.31 402.31 C 334.44 398.31 340.88 394.39 346.75 387.75 C 352.62 381.10 356.64 375.67 360.02 367.02 C 363.40 358.38 365.27 347.99 365.00 338.00 C 364.73 328.01 365.71 313.98 365.00 304.00 C 364.29 294.02 366.61 279.07 365.00 270.00 C 363.39 260.93 369.50 242.59 363.00 238.00 Z"/>
</g>
<g fill="None" fill-opacity="0.0" stroke="#FFFFFF" stroke-opacity="1.00" stroke-width="0.3"><path d="
M 376.00 169.00 
C 368.35 174.41 353.73 168.09 344.00 170.00 C 334.27 171.91 320.15 168.74 310.00 170.00
C 299.59 174.89 301.62 192.52 303.01 204.99 C 304.39 217.46 326.24 212.33 337.00 213.00 C 347.76 213.67 366.51 212.50 378.00 213.00
C 378.55 224.29 377.27 234.62 378.00 246.00 C 378.73 257.38 376.60 267.26 378.01 278.99 C 379.42 290.72 392.91 285.82 403.00 287.00 C 413.09 288.18 421.54 286.15 422.00 274.00
C 421.05 257.82 420.66 239.91 421.00 223.00
C 421.06 220.22 420.92 218.16 422.00 216.00
C 422.00 215.00 422.00 214.00 422.00 213.00
C 433.71 213.24 453.05 212.67 464.00 213.00 C 474.95 213.33 495.25 215.75 496.00 204.00 C 496.75 192.25 500.31 173.43 489.00 170.00
C 479.10 168.33 465.56 172.09 456.00 170.00 C 446.44 167.91 431.58 174.36 424.00 169.00
C 421.15 166.98 422.00 163.97 422.00 160.00
C 420.45 143.99 420.46 124.94 422.00 109.00
C 422.58 104.35 421.34 100.13 420.00 96.00
C 410.05 91.41 402.39 95.97 391.00 94.00 C 379.61 92.03 377.34 101.84 378.00 111.00 C 378.66 120.16 378.76 132.81 378.00 141.00 C 377.24 149.19 381.60 165.04 376.00 169.00 Z"/>
</g>
<g fill="None" fill-opacity="0.0" stroke="#FFFFFF" stroke-opacity="0.80" stroke-width="0.3"><path d="
M 422.00 160.00 
C 422.00 143.00 422.00 126.00 422.00 109.00
C 420.46 124.94 420.45 143.99 422.00 160.00 Z"/>
</g>
<g fill="None" fill-opacity="0.0" stroke="#FFFFFF" stroke-opacity="0.40" stroke-width="0.3"><path d="
M 47.00 346.00 
C 44.47 314.08 47.13 281.03 47.00 249.00 C 46.87 216.97 44.83 183.95 47.00 152.00
C 43.38 172.21 46.58 195.79 46.00 217.00 C 45.42 238.21 45.31 260.87 46.00 282.00 C 46.69 303.13 43.12 325.91 47.00 346.00 Z"/>
</g>
<g fill="None" fill-opacity="0.0" stroke="#FFFFFF" stroke-opacity="0.70" stroke-width="0.3"><path d="
M 310.00 170.00 
C 320.15 168.74 334.27 171.91 344.00 170.00 C 353.73 168.09 368.35 174.41 376.00 169.00
C 369.95 171.92 359.73 167.63 353.00 169.00 C 346.27 170.37 337.95 168.43 331.00 169.00 C 324.05 169.57 316.34 168.43 310.00 170.00 Z"/>
</g>
<g fill="None" fill-opacity="0.0" stroke="#FFFFFF" stroke-opacity="0.68" stroke-width="0.3"><path d="
M 489.00 170.00 
C 482.82 168.12 474.88 169.66 468.00 169.00 C 461.12 168.34 452.63 170.32 446.00 169.00 C 439.37 167.68 429.90 171.85 424.00 169.00
C 431.58 174.36 446.44 167.91 456.00 170.00 C 465.56 172.09 479.10 168.33 489.00 170.00 Z"/>
</g>
<g fill="None" fill-opacity="0.0" stroke="#FFFFFF" stroke-opacity="0.53" stroke-width="0.3"><path d="
M 421.00 223.00 
C 421.00 222.96 422.00 223.00 422.00 223.00
C 422.00 220.96 421.43 217.95 422.00 216.00
C 420.92 218.16 421.06 220.22 421.00 223.00 Z"/>
</g>
<g fill="None" fill-opacity="0.0" stroke="#FFFFFF" stroke-opacity="0.80" stroke-width="0.3"><path d="
M 422.00 274.00 
C 422.65 257.06 422.00 239.96 422.00 223.00
C 422.00 223.00 421.00 222.96 421.00 223.00
C 420.66 239.91 421.05 257.82 422.00 274.00 Z"/>
</g>
<g fill="None" fill-opacity="0.0" stroke="#FFFFFF" stroke-opacity="1.00" stroke-width="0.3"><path d="
M 274.00 259.00 
C 273.66 253.30 273.84 245.59 274.00 240.00
C 273.59 233.96 272.56 231.55 267.00 230.00
C 239.13 225.84 209.14 232.02 181.00 230.00 C 152.86 227.98 123.39 231.65 96.00 229.00
C 77.90 229.00 82.93 237.38 81.00 252.00 C 79.07 266.62 84.63 273.89 99.00 272.00 C 113.37 270.11 123.60 272.85 137.00 272.00 C 150.40 271.15 161.02 272.33 174.00 272.00 C 186.98 271.67 199.11 272.05 212.00 272.00 C 224.89 271.95 237.05 271.82 250.00 272.00 C 262.95 272.18 273.41 274.52 274.00 259.00 Z"/>
</g>
<g fill="None" fill-opacity="0.0" stroke="#FFFFFF" stroke-opacity="0.60" stroke-width="0.3"><path d="
M 267.00 230.00 
C 249.72 225.18 228.55 230.50 210.00 229.00 C 191.45 227.50 171.76 229.56 153.00 229.00 C 134.24 228.44 114.82 229.00 96.00 229.00
C 123.39 231.65 152.86 227.98 181.00 230.00 C 209.14 232.02 239.13 225.84 267.00 230.00 Z"/>
</g>
<g fill="None" fill-opacity="0.0" stroke="#FFFFFF" stroke-opacity="0.69" stroke-width="0.3"><path d="
M 363.00 238.00 
C 357.57 234.16 339.11 236.61 332.00 237.00
C 335.80 237.16 342.56 237.76 347.00 238.00 C 351.44 238.24 359.15 236.14 363.00 238.00 Z"/>
</g>
<g fill="None" fill-opacity="0.0" stroke="#FFFFFF" stroke-opacity="0.42" stroke-width="0.3"><path d="
M 274.00 259.00 
C 274.24 252.79 274.42 246.20 274.00 240.00
C 273.84 245.59 273.66 253.30 274.00 259.00 Z"/>
</g>
<g fill="None" fill-opacity="0.0" stroke="#FFFFFF" stroke-opacity="1.00" stroke-width="0.3"><path d="
M 273.00 328.00 
C 274.11 320.58 273.60 310.83 274.00 304.00
C 273.70 296.17 272.27 291.85 264.00 291.00
C 262.25 290.99 258.51 292.00 256.00 292.00
C 201.48 292.00 145.70 292.55 92.00 291.00
C 75.05 292.15 82.39 308.82 81.00 323.00 C 79.61 337.18 98.62 335.90 111.00 335.00 C 123.38 334.10 139.96 335.60 153.00 335.00 C 166.04 334.40 183.07 335.70 196.00 335.00 C 208.93 334.30 226.05 336.29 238.00 335.00 C 249.95 333.71 269.47 340.66 273.00 328.00 Z"/>
</g>
<g fill="None" fill-opacity="0.0" stroke="#FFFFFF" stroke-opacity="0.88" stroke-width="0.3"><path d="
M 256.00 292.00 
C 255.96 292.00 256.00 291.00 256.00 291.00
C 228.72 291.00 201.26 290.31 174.00 291.00 C 146.74 291.69 119.18 289.15 92.00 291.00
C 145.70 292.55 201.48 292.00 256.00 292.00 Z"/>
</g>
<g fill="None" fill-opacity="0.0" stroke="#FFFFFF" stroke-opacity="0.60" stroke-width="0.3"><path d="
M 256.00 292.00 
C 258.51 292.00 262.25 290.99 264.00 291.00
C 261.40 290.73 258.62 291.00 256.00 291.00
C 256.00 291.00 255.96 292.00 256.00 292.00 Z"/>
</g>
<g fill="None" fill-opacity="0.0" stroke="#FFFFFF" stroke-opacity="0.45" stroke-width="0.3"><path d="
M 273.00 328.00 
C 274.89 321.21 274.29 311.64 274.00 304.00
C 273.60 310.83 274.11 320.58 273.00 328.00 Z"/>
</g>
<g fill="None" fill-opacity="0.0" stroke="#FFFFFF" stroke-opacity="0.85" stroke-width="0.3"><path d="
M 297.00 369.00 
C 259.73 369.75 222.28 369.25 185.00 369.00 C 147.72 368.75 110.24 370.42 73.00 369.00
C 108.43 374.06 148.47 369.72 185.00 370.00 C 221.53 370.28 261.38 373.30 297.00 369.00 Z"/>
</g>
<g fill="#000000" fill-opacity="0.00" stroke="None">
<path d="
M 0.00 471.00 
L 499.00 471.00
L 499.00 0.00
L 0.00 0.00
L 0.00 471.00
M 47.00 152.00 
C 44.83 183.95 46.87 216.97 47.00 249.00 C 47.13 281.03 44.47 314.08 47.00 346.00
C 48.07 359.50 60.09 368.51 73.00 369.00
C 110.24 370.42 147.72 368.75 185.00 369.00 C 222.28 369.25 259.73 369.75 297.00 369.00
C 306.29 368.81 313.59 366.59 319.75 358.75 C 325.91 350.91 324.94 341.25 325.00 331.00 C 325.06 320.75 324.62 307.37 325.00 297.00 C 325.38 286.63 324.00 273.94 325.00 264.00 C 326.00 254.06 319.88 237.66 332.00 237.00
C 339.11 236.61 357.57 234.16 363.00 238.00
C 369.50 242.59 363.39 260.93 365.00 270.00 C 366.61 279.07 364.29 294.02 365.00 304.00 C 365.71 313.98 364.73 328.01 365.00 338.00 C 365.27 347.99 363.40 358.38 360.02 367.02 C 356.64 375.67 352.62 381.10 346.75 387.75 C 340.88 394.39 334.44 398.31 326.31 402.31 C 318.17 406.30 309.14 408.75 299.00 409.00 C 288.86 409.25 275.80 408.89 265.00 409.00 C 254.20 409.11 242.11 408.95 231.00 409.00 C 219.89 409.05 208.27 408.97 197.00 409.00 C 185.73 409.03 173.26 408.98 162.00 409.00 C 150.74 409.02 139.08 408.98 128.00 409.00 C 116.92 409.02 104.73 408.97 94.00 409.00 C 83.27 409.03 70.98 409.40 61.33 407.67 C 51.68 405.94 44.83 402.74 37.25 397.75 C 29.67 392.76 24.62 388.20 19.25 380.75 C 13.87 373.30 11.35 366.42 9.01 356.99 C 6.67 347.56 6.84 335.70 7.00 325.00 C 7.16 314.30 6.93 302.03 7.00 291.00 C 7.07 279.97 6.96 268.15 7.00 257.00 C 7.04 245.85 6.97 234.15 7.00 223.00 C 7.03 211.85 6.96 198.92 7.00 188.00 C 7.04 177.08 6.92 164.26 7.00 154.00 C 7.08 143.74 9.81 134.94 13.75 126.75 C 17.70 118.57 20.71 112.68 27.75 106.75 C 34.79 100.83 39.39 96.86 48.23 93.23 C 57.07 89.60 67.55 88.00 78.00 88.00 C 88.45 88.00 101.07 88.00 112.00 88.00 C 122.93 88.00 134.85 88.01 146.00 88.00 C 157.15 87.99 168.76 88.02 180.00 88.00 C 191.24 87.98 202.74 88.05 214.00 88.00 C 225.26 87.95 237.87 88.10 249.00 88.00 C 260.13 87.90 272.28 88.23 283.00 88.00 C 293.72 87.77 305.28 88.00 314.67 90.33 C 324.07 92.66 329.95 96.52 337.25 101.75 C 344.54 106.99 349.18 111.63 353.92 119.08 C 358.66 126.53 361.78 134.73 363.78 143.22
C 353.03 144.02 339.73 143.98 329.00 144.00 C 318.27 144.02 318.14 131.82 307.32 129.68 C 296.51 127.54 284.62 127.87 273.00 128.00 C 261.38 128.13 249.74 127.93 238.00 128.00 C 226.26 128.07 213.80 127.95 202.00 128.00 C 190.20 128.05 177.72 127.94 166.00 128.00 C 154.28 128.06 142.54 127.89 131.00 128.00 C 119.46 128.11 106.18 127.78 95.00 128.00 C 83.82 128.22 71.11 126.33 61.77 130.77 C 52.43 135.21 48.09 142.47 47.00 152.00
M 422.00 109.00 
C 422.00 126.00 422.00 143.00 422.00 160.00
C 422.00 163.97 421.15 166.98 424.00 169.00
C 429.90 171.85 439.37 167.68 446.00 169.00 C 452.63 170.32 461.12 168.34 468.00 169.00 C 474.88 169.66 482.82 168.12 489.00 170.00
C 500.31 173.43 496.75 192.25 496.00 204.00 C 495.25 215.75 474.95 213.33 464.00 213.00 C 453.05 212.67 433.71 213.24 422.00 213.00
C 422.00 214.00 422.00 215.00 422.00 216.00
C 421.43 217.95 422.00 220.96 422.00 223.00
C 422.00 239.96 422.65 257.06 422.00 274.00
C 421.54 286.15 413.09 288.18 403.00 287.00 C 392.91 285.82 379.42 290.72 378.01 278.99 C 376.60 267.26 378.73 257.38 378.00 246.00 C 377.27 234.62 378.55 224.29 378.00 213.00
C 366.51 212.50 347.76 213.67 337.00 213.00 C 326.24 212.33 304.39 217.46 303.01 204.99 C 301.62 192.52 299.59 174.89 310.00 170.00
C 316.34 168.43 324.05 169.57 331.00 169.00 C 337.95 168.43 346.27 170.37 353.00 169.00 C 359.73 167.63 369.95 171.92 376.00 169.00
C 381.60 165.04 377.24 149.19 378.00 141.00 C 378.76 132.81 378.66 120.16 378.00 111.00 C 377.34 101.84 379.61 92.03 391.00 94.00 C 402.39 95.97 410.05 91.41 420.00 96.00
C 421.34 100.13 422.58 104.35 422.00 109.00
M 267.00 230.00 
C 272.56 231.55 273.59 233.96 274.00 240.00
C 274.42 246.20 274.24 252.79 274.00 259.00
C 273.41 274.52 262.95 272.18 250.00 272.00 C 237.05 271.82 224.89 271.95 212.00 272.00 C 199.11 272.05 186.98 271.67 174.00 272.00 C 161.02 272.33 150.40 271.15 137.00 272.00 C 123.60 272.85 113.37 270.11 99.00 272.00 C 84.63 273.89 79.07 266.62 81.00 252.00 C 82.93 237.38 77.90 229.00 96.00 229.00
C 114.82 229.00 134.24 228.44 153.00 229.00 C 171.76 229.56 191.45 227.50 210.00 229.00 C 228.55 230.50 249.72 225.18 267.00 230.00
M 274.00 304.00 
C 274.29 311.64 274.89 321.21 273.00 328.00
C 269.47 340.66 249.95 333.71 238.00 335.00 C 226.05 336.29 208.93 334.30 196.00 335.00 C 183.07 335.70 166.04 334.40 153.00 335.00 C 139.96 335.60 123.38 334.10 111.00 335.00 C 98.62 335.90 79.61 337.18 81.00 323.00 C 82.39 308.82 75.05 292.15 92.00 291.00
C 119.18 289.15 146.74 291.69 174.00 291.00 C 201.26 290.31 228.72 291.00 256.00 291.00
C 258.62 291.00 261.40 290.73 264.00 291.00
C 272.27 291.85 273.70 296.17 274.00 304.00 Z"/>
</g>
<g fill="#FFFFFF" fill-opacity="1.00" stroke="None">
<path d="
M 363.00 238.00 
C 359.15 236.14 351.44 238.24 347.00 238.00 C 342.56 237.76 335.80 237.16 332.00 237.00
C 319.88 237.66 326.00 254.06 325.00 264.00 C 324.00 273.94 325.38 286.63 325.00 297.00 C 324.62 307.37 325.06 320.75 325.00 331.00 C 324.94 341.25 325.91 350.91 319.75 358.75 C 313.59 366.59 306.29 368.81 297.00 369.00
C 261.38 373.30 221.53 370.28 185.00 370.00 C 148.47 369.72 108.43 374.06 73.00 369.00
C 60.09 368.51 48.07 359.50 47.00 346.00
C 43.12 325.91 46.69 303.13 46.00 282.00 C 45.31 260.87 45.42 238.21 46.00 217.00 C 46.58 195.79 43.38 172.21 47.00 152.00
C 48.09 142.47 52.43 135.21 61.77 130.77 C 71.11 126.33 83.82 128.22 95.00 128.00 C 106.18 127.78 119.46 128.11 131.00 128.00 C 142.54 127.89 154.28 128.06 166.00 128.00 C 177.72 127.94 190.20 128.05 202.00 128.00 C 213.80 127.95 226.26 128.07 238.00 128.00 C 249.74 127.93 261.38 128.13 273.00 128.00 C 284.62 127.87 296.51 127.54 307.32 129.68 C 318.14 131.82 318.27 144.02 329.00 144.00 C 339.73 143.98 353.03 144.02 364.00 144.00
C 361.78 134.73 358.66 126.53 353.92 119.08 C 349.18 111.63 344.54 106.99 337.25 101.75 C 329.95 96.52 324.07 92.66 314.67 90.33 C 305.28 88.00 293.72 87.77 283.00 88.00 C 272.28 88.23 260.13 87.90 249.00 88.00 C 237.87 88.10 225.26 87.95 214.00 88.00 C 202.74 88.05 191.24 87.98 180.00 88.00 C 168.76 88.02 157.15 87.99 146.00 88.00 C 134.85 88.01 122.93 88.00 112.00 88.00 C 101.07 88.00 88.45 88.00 78.00 88.00 C 67.55 88.00 57.07 89.60 48.23 93.23 C 39.39 96.86 34.79 100.83 27.75 106.75 C 20.71 112.68 17.70 118.57 13.75 126.75 C 9.81 134.94 7.08 143.74 7.00 154.00 C 6.92 164.26 7.04 177.08 7.00 188.00 C 6.96 198.92 7.03 211.85 7.00 223.00 C 6.97 234.15 7.04 245.85 7.00 257.00 C 6.96 268.15 7.07 279.97 7.00 291.00 C 6.93 302.03 7.16 314.30 7.00 325.00 C 6.84 335.70 6.67 347.56 9.01 356.99 C 11.35 366.42 13.87 373.30 19.25 380.75 C 24.62 388.20 29.67 392.76 37.25 397.75 C 44.83 402.74 51.68 405.94 61.33 407.67 C 70.98 409.40 83.27 409.03 94.00 409.00 C 104.73 408.97 116.92 409.02 128.00 409.00 C 139.08 408.98 150.74 409.02 162.00 409.00 C 173.26 408.98 185.73 409.03 197.00 409.00 C 208.27 408.97 219.89 409.05 231.00 409.00 C 242.11 408.95 254.20 409.11 265.00 409.00 C 275.80 408.89 288.86 409.25 299.00 409.00 C 309.14 408.75 318.17 406.30 326.31 402.31 C 334.44 398.31 340.88 394.39 346.75 387.75 C 352.62 381.10 356.64 375.67 360.02 367.02 C 363.40 358.38 365.27 347.99 365.00 338.00 C 364.73 328.01 365.71 313.98 365.00 304.00 C 364.29 294.02 366.61 279.07 365.00 270.00 C 363.39 260.93 369.50 242.59 363.00 238.00 Z"/>
</g>
<g fill="#FFFFFF" fill-opacity="1.00" stroke="None">
<path d="
M 376.00 169.00 
C 368.35 174.41 353.73 168.09 344.00 170.00 C 334.27 171.91 320.15 168.74 310.00 170.00
C 299.59 174.89 301.62 192.52 303.01 204.99 C 304.39 217.46 326.24 212.33 337.00 213.00 C 347.76 213.67 366.51 212.50 378.00 213.00
C 378.55 224.29 377.27 234.62 378.00 246.00 C 378.73 257.38 376.60 267.26 378.01 278.99 C 379.42 290.72 392.91 285.82 403.00 287.00 C 413.09 288.18 421.54 286.15 422.00 274.00
C 421.05 257.82 420.66 239.91 421.00 223.00
C 421.06 220.22 420.92 218.16 422.00 216.00
C 422.00 215.00 422.00 214.00 422.00 213.00
C 433.71 213.24 453.05 212.67 464.00 213.00 C 474.95 213.33 495.25 215.75 496.00 204.00 C 496.75 192.25 500.31 173.43 489.00 170.00
C 479.10 168.33 465.56 172.09 456.00 170.00 C 446.44 167.91 431.58 174.36 424.00 169.00
C 421.15 166.98 422.00 163.97 422.00 160.00
C 420.45 143.99 420.46 124.94 422.00 109.00
C 422.58 104.35 421.34 100.13 420.00 96.00
C 410.05 91.41 402.39 95.97 391.00 94.00 C 379.61 92.03 377.34 101.84 378.00 111.00 C 378.66 120.16 378.76 132.81 378.00 141.00 C 377.24 149.19 381.60 165.04 376.00 169.00 Z"/>
</g>
<g fill="#FFFFFF" fill-opacity="0.80" stroke="None">
<path d="
M 422.00 160.00 
C 422.00 143.00 422.00 126.00 422.00 109.00
C 420.46 124.94 420.45 143.99 422.00 160.00 Z"/>
</g>
<g fill="#FFFFFF" fill-opacity="0.40" stroke="None">
<path d="
M 47.00 346.00 
C 44.47 314.08 47.13 281.03 47.00 249.00 C 46.87 216.97 44.83 183.95 47.00 152.00
C 43.38 172.21 46.58 195.79 46.00 217.00 C 45.42 238.21 45.31 260.87 46.00 282.00 C 46.69 303.13 43.12 325.91 47.00 346.00 Z"/>
</g>
<g fill="#FFFFFF" fill-opacity="0.70" stroke="None">
<path d="
M 310.00 170.00 
C 320.15 168.74 334.27 171.91 344.00 170.00 C 353.73 168.09 368.35 174.41 376.00 169.00
C 369.95 171.92 359.73 167.63 353.00 169.00 C 346.27 170.37 337.95 168.43 331.00 169.00 C 324.05 169.57 316.34 168.43 310.00 170.00 Z"/>
</g>
<g fill="#FFFFFF" fill-opacity="0.68" stroke="None">
<path d="
M 489.00 170.00 
C 482.82 168.12 474.88 169.66 468.00 169.00 C 461.12 168.34 452.63 170.32 446.00 169.00 C 439.37 167.68 429.90 171.85 424.00 169.00
C 431.58 174.36 446.44 167.91 456.00 170.00 C 465.56 172.09 479.10 168.33 489.00 170.00 Z"/>
</g>
<g fill="#FFFFFF" fill-opacity="0.53" stroke="None">
<path d="
M 421.00 223.00 
C 421.00 222.96 422.00 223.00 422.00 223.00
C 422.00 220.96 421.43 217.95 422.00 216.00
C 420.92 218.16 421.06 220.22 421.00 223.00 Z"/>
</g>
<g fill="#FFFFFF" fill-opacity="0.80" stroke="None">
<path d="
M 422.00 274.00 
C 422.65 257.06 422.00 239.96 422.00 223.00
C 422.00 223.00 421.00 222.96 421.00 223.00
C 420.66 239.91 421.05 257.82 422.00 274.00 Z"/>
</g>
<g fill="#FFFFFF" fill-opacity="1.00" stroke="None">
<path d="
M 274.00 259.00 
C 273.66 253.30 273.84 245.59 274.00 240.00
C 273.59 233.96 272.56 231.55 267.00 230.00
C 239.13 225.84 209.14 232.02 181.00 230.00 C 152.86 227.98 123.39 231.65 96.00 229.00
C 77.90 229.00 82.93 237.38 81.00 252.00 C 79.07 266.62 84.63 273.89 99.00 272.00 C 113.37 270.11 123.60 272.85 137.00 272.00 C 150.40 271.15 161.02 272.33 174.00 272.00 C 186.98 271.67 199.11 272.05 212.00 272.00 C 224.89 271.95 237.05 271.82 250.00 272.00 C 262.95 272.18 273.41 274.52 274.00 259.00 Z"/>
</g>
<g fill="#FFFFFF" fill-opacity="0.60" stroke="None">
<path d="
M 267.00 230.00 
C 249.72 225.18 228.55 230.50 210.00 229.00 C 191.45 227.50 171.76 229.56 153.00 229.00 C 134.24 228.44 114.82 229.00 96.00 229.00
C 123.39 231.65 152.86 227.98 181.00 230.00 C 209.14 232.02 239.13 225.84 267.00 230.00 Z"/>
</g>
<g fill="#FFFFFF" fill-opacity="0.69" stroke="None">
<path d="
M 363.00 238.00 
C 357.57 234.16 339.11 236.61 332.00 237.00
C 335.80 237.16 342.56 237.76 347.00 238.00 C 351.44 238.24 359.15 236.14 363.00 238.00 Z"/>
</g>
<g fill="#FFFFFF" fill-opacity="0.42" stroke="None">
<path d="
M 274.00 259.00 
C 274.24 252.79 274.42 246.20 274.00 240.00
C 273.84 245.59 273.66 253.30 274.00 259.00 Z"/>
</g>
<g fill="#FFFFFF" fill-opacity="1.00" stroke="None">
<path d="
M 273.00 328.00 
C 274.11 320.58 273.60 310.83 274.00 304.00
C 273.70 296.17 272.27 291.85 264.00 291.00
C 262.25 290.99 258.51 292.00 256.00 292.00
C 201.48 292.00 145.70 292.55 92.00 291.00
C 75.05 292.15 82.39 308.82 81.00 323.00 C 79.61 337.18 98.62 335.90 111.00 335.00 C 123.38 334.10 139.96 335.60 153.00 335.00 C 166.04 334.40 183.07 335.70 196.00 335.00 C 208.93 334.30 226.05 336.29 238.00 335.00 C 249.95 333.71 269.47 340.66 273.00 328.00 Z"/>
</g>
<g fill="#FFFFFF" fill-opacity="0.88" stroke="None">
<path d="
M 256.00 292.00 
C 255.96 292.00 256.00 291.00 256.00 291.00
C 228.72 291.00 201.26 290.31 174.00 291.00 C 146.74 291.69 119.18 289.15 92.00 291.00
C 145.70 292.55 201.48 292.00 256.00 292.00 Z"/>
</g>
<g fill="#FFFFFF" fill-opacity="0.60" stroke="None">
<path d="
M 256.00 292.00 
C 258.51 292.00 262.25 290.99 264.00 291.00
C 261.40 290.73 258.62 291.00 256.00 291.00
C 256.00 291.00 255.96 292.00 256.00 292.00 Z"/>
</g>
<g fill="#FFFFFF" fill-opacity="0.45" stroke="None">
<path d="
M 273.00 328.00 
C 274.89 321.21 274.29 311.64 274.00 304.00
C 273.60 310.83 274.11 320.58 273.00 328.00 Z"/>
</g>
<g fill="#FFFFFF" fill-opacity="0.85" stroke="None">
<path d="
M 297.00 369.00 
C 259.73 369.75 222.28 369.25 185.00 369.00 C 147.72 368.75 110.24 370.42 73.00 369.00
C 108.43 374.06 148.47 369.72 185.00 370.00 C 221.53 370.28 261.38 373.30 297.00 369.00 Z"/>
</g>
</svg>