<svg xmlns="http://www.w3.org/2000/svg" xmlns:v="https://svgstorm.com"
viewBox = "0 0 496 457"
width="496"
height="457">
<g fill="None" fill-opacity="0.0" stroke="#000000" stroke-opacity="0.00" stroke-width="0.3"><path d="
M 0.00 457.00 
L 496.00 457.00
L 496.00 0.00
L 0.00 0.00
L 0.00 457.00
M 46.00 75.00 
C 46.00 175.33 46.00 275.67 46.00 376.00
C 59.38 375.99 72.60 376.01 86.00 376.00 C 99.40 375.99 112.54 376.02 126.00 376.00 C 139.46 375.98 153.51 376.04 167.00 376.00 C 180.49 375.96 193.50 376.09 207.00 376.00 C 220.50 375.91 233.37 376.19 247.00 376.00 C 260.63 375.81 274.16 376.41 288.00 376.00 C 301.84 375.59 313.71 376.94 328.00 376.00 C 342.29 375.06 353.79 378.03 369.00 376.00 C 384.21 373.97 390.97 379.81 390.00 395.00 C 389.03 410.19 391.51 421.11 375.00 420.00 C 358.49 418.89 348.89 420.51 334.00 420.00 C 319.11 419.49 308.11 420.23 294.00 420.00 C 279.89 419.77 266.77 420.11 253.00 420.00 C 239.23 419.89 226.58 420.06 213.00 420.00 C 199.42 419.94 186.55 420.05 173.00 420.00 C 159.45 419.95 145.56 420.08 132.00 420.00 C 118.44 419.92 105.60 420.17 92.00 420.00 C 78.40 419.83 64.70 420.35 51.00 420.00 C 37.30 419.65 24.93 420.79 11.00 420.00 C -2.93 419.21 2.63 400.86 2.00 389.00 C 1.37 377.14 2.29 360.73 2.00 348.00 C 1.71 335.27 2.12 321.14 2.00 308.00 C 1.88 294.86 2.04 280.28 2.00 267.00 C 1.96 253.72 1.97 240.28 2.00 227.00 C 2.03 213.72 1.89 200.24 2.00 187.00 C 2.11 173.76 1.75 159.04 2.00 146.00 C 2.25 132.96 1.43 118.50 2.00 106.00 C 2.57 93.50 0.76 76.35 2.00 65.00 C 3.24 53.65 -3.75 34.38 9.01 32.01 C 21.77 29.64 35.82 33.04 49.00 32.00 C 62.18 30.96 76.64 32.49 90.00 32.00 C 103.36 31.51 116.55 32.22 130.00 32.00 C 143.45 31.78 157.50 32.13 171.00 32.00 C 184.50 31.87 197.45 32.11 211.00 32.00 C 224.55 31.89 237.25 32.16 251.00 32.00 C 264.75 31.84 277.90 32.32 292.00 32.00 C 306.10 31.68 317.13 32.70 332.00 32.00 C 346.87 31.30 356.52 33.51 373.00 32.00 C 389.48 30.49 389.41 39.28 390.00 55.00 C 390.59 70.72 385.81 76.94 370.00 75.00 C 354.19 73.06 343.57 75.89 329.00 75.00 C 314.43 74.11 302.96 75.39 289.00 75.00 C 275.04 74.61 261.70 75.18 248.00 75.00 C 234.30 74.82 221.54 75.08 208.00 75.00 C 194.46 74.92 181.53 75.04 168.00 75.00 C 154.47 74.96 140.53 75.02 127.00 75.00 C 113.47 74.98 100.54 75.01 87.00 75.00 C 73.46 74.99 59.57 75.01 46.00 75.00
M 484.00 32.00 
C 499.52 35.21 493.13 56.60 494.00 70.00 C 494.87 83.40 493.62 104.10 494.00 119.00 C 494.38 133.90 493.88 151.37 494.00 167.00 C 494.12 182.63 494.04 200.05 494.00 216.00 C 493.96 231.95 494.23 248.97 494.00 265.00 C 493.77 281.03 494.59 297.00 494.00 313.00 C 493.41 329.00 495.31 346.12 494.00 362.00 C 492.69 377.88 497.05 395.31 493.67 410.67 C 490.29 426.03 466.69 418.58 455.00 420.00 C 443.31 421.42 418.97 422.97 420.00 406.00 C 421.03 389.03 419.55 374.54 420.00 358.00 C 420.45 341.46 419.80 325.36 420.00 309.00 C 420.20 292.64 419.93 276.20 420.00 260.00 C 420.07 243.80 420.02 228.05 420.00 212.00 C 419.98 195.95 420.11 178.83 420.00 163.00 C 419.89 147.17 420.28 129.27 420.00 114.00 C 419.72 98.73 420.65 80.06 420.00 66.00 C 419.35 51.94 417.24 30.34 435.00 32.00 C 452.77 33.66 466.18 28.31 483.00 32.00
M 283.00 144.00 
C 272.16 140.53 257.44 133.32 253.23 146.23 C 249.02 159.14 241.71 170.73 255.23 175.77 C 268.75 180.82 277.11 182.85 289.07 187.93 C 301.04 193.01 314.01 193.65 316.00 207.00 C 317.99 220.35 318.98 236.43 316.00 249.00 C 313.02 261.57 308.78 272.60 303.22 283.22 C 297.66 293.85 290.99 299.80 282.75 308.75 C 274.52 317.71 266.68 322.40 256.31 328.31 C 245.93 334.21 234.18 337.81 222.00 340.00 C 209.81 342.19 192.04 342.83 179.99 340.01 C 167.94 337.19 155.46 333.77 145.32 327.68 C 135.18 321.59 127.31 316.16 119.25 307.75 C 111.19 299.35 105.87 291.62 99.70 281.30 C 93.52 270.99 90.75 259.02 88.00 247.00 C 85.25 234.97 85.45 217.04 87.98 204.98 C 90.51 192.91 93.88 181.16 99.77 170.77 C 105.66 160.38 111.90 152.26 120.08 144.08 C 128.27 135.90 135.67 129.77 146.23 124.23 C 156.79 118.69 167.84 114.45 180.02 112.02 C 192.21 109.60 209.77 110.00 222.00 112.00 C 234.23 114.00 245.73 118.04 256.23 123.77 C 266.73 129.50 275.20 134.78 283.00 144.00
M 266.00 142.00 
C 274.86 143.54 282.95 150.21 292.23 152.77 C 301.51 155.33 310.75 159.75 320.07 162.93 C 329.40 166.10 337.32 169.75 347.02 172.98 C 356.73 176.20 363.81 180.43 374.23 183.77 C 384.65 187.11 389.31 189.98 401.23 193.77 C 413.14 197.56 409.37 204.82 405.22 216.22 C 401.08 227.63 392.16 223.65 382.77 219.23 C 373.38 214.81 363.93 213.27 354.98 209.02 C 346.02 204.78 336.62 202.92 327.98 199.02 C 319.33 195.13 308.61 191.94 300.32 188.68 C 292.04 185.41 280.93 181.32 273.78 178.22 C 266.62 175.13 249.14 172.66 250.00 164.00 C 250.86 155.33 256.87 140.41 266.00 142.00 Z"/>
</g>
<g fill="None" fill-opacity="0.0" stroke="#FFFFFF" stroke-opacity="1.00" stroke-width="0.3"><path d="
M 46.00 75.00 
C 59.57 75.01 73.46 74.99 87.00 75.00 C 100.54 75.01 113.47 74.98 127.00 75.00 C 140.53 75.02 154.47 74.96 168.00 75.00 C 181.53 75.04 194.46 74.92 208.00 75.00 C 221.54 75.08 234.30 74.82 248.00 75.00 C 261.70 75.18 275.04 74.61 289.00 75.00 C 302.96 75.39 314.43 74.11 329.00 75.00 C 343.57 75.89 354.19 73.06 370.00 75.00 C 385.81 76.94 390.59 70.72 390.00 55.00 C 389.41 39.28 389.48 30.49 373.00 32.00 C 356.52 33.51 346.87 31.30 332.00 32.00 C 317.13 32.70 306.10 31.68 292.00 32.00 C 277.90 32.32 264.75 31.84 251.00 32.00 C 237.25 32.16 224.55 31.89 211.00 32.00 C 197.45 32.11 184.50 31.87 171.00 32.00 C 157.50 32.13 143.45 31.78 130.00 32.00 C 116.55 32.22 103.36 31.51 90.00 32.00 C 76.64 32.49 62.18 30.96 49.00 32.00 C 35.82 33.04 21.77 29.64 9.01 32.01 C -3.75 34.38 3.24 53.65 2.00 65.00 C 0.76 76.35 2.57 93.50 2.00 106.00 C 1.43 118.50 2.25 132.96 2.00 146.00 C 1.75 159.04 2.11 173.76 2.00 187.00 C 1.89 200.24 2.03 213.72 2.00 227.00 C 1.97 240.28 1.96 253.72 2.00 267.00 C 2.04 280.28 1.88 294.86 2.00 308.00 C 2.12 321.14 1.71 335.27 2.00 348.00 C 2.29 360.73 1.37 377.14 2.00 389.00 C 2.63 400.86 -2.93 419.21 11.00 420.00 C 24.93 420.79 37.30 419.65 51.00 420.00 C 64.70 420.35 78.40 419.83 92.00 420.00 C 105.60 420.17 118.44 419.92 132.00 420.00 C 145.56 420.08 159.45 419.95 173.00 420.00 C 186.55 420.05 199.42 419.94 213.00 420.00 C 226.58 420.06 239.23 419.89 253.00 420.00 C 266.77 420.11 279.89 419.77 294.00 420.00 C 308.11 420.23 319.11 419.49 334.00 420.00 C 348.89 420.51 358.49 418.89 375.00 420.00 C 391.51 421.11 389.03 410.19 390.00 395.00 C 390.97 379.81 384.21 373.97 369.00 376.00 C 353.79 378.03 342.29 375.06 328.00 376.00 C 313.71 376.94 301.84 375.59 288.00 376.00 C 274.16 376.41 260.63 375.81 247.00 376.00 C 233.37 376.19 220.50 375.91 207.00 376.00 C 193.50 376.09 180.49 375.96 167.00 376.00 C 153.51 376.04 139.46 375.98 126.00 376.00 C 112.54 376.02 99.40 375.99 86.00 376.00 C 72.60 376.01 59.38 375.99 46.00 376.00
C 46.00 275.67 46.00 175.33 46.00 75.00 Z"/>
</g>
<g fill="None" fill-opacity="0.0" stroke="#FFFFFF" stroke-opacity="1.00" stroke-width="0.3"><path d="
M 483.00 32.00 
C 466.18 28.31 452.77 33.66 435.00 32.00 C 417.24 30.34 419.35 51.94 420.00 66.00 C 420.65 80.06 419.72 98.73 420.00 114.00 C 420.28 129.27 419.89 147.17 420.00 163.00 C 420.11 178.83 419.98 195.95 420.00 212.00 C 420.02 228.05 420.07 243.80 420.00 260.00 C 419.93 276.20 420.20 292.64 420.00 309.00 C 419.80 325.36 420.45 341.46 420.00 358.00 C 419.55 374.54 421.03 389.03 420.00 406.00 C 418.97 422.97 443.31 421.42 455.00 420.00 C 466.69 418.58 490.29 426.03 493.67 410.67 C 497.05 395.31 492.69 377.88 494.00 362.00 C 495.31 346.12 493.41 329.00 494.00 313.00 C 494.59 297.00 493.77 281.03 494.00 265.00 C 494.23 248.97 493.96 231.95 494.00 216.00 C 494.04 200.05 494.12 182.63 494.00 167.00 C 493.88 151.37 494.38 133.90 494.00 119.00 C 493.62 104.10 494.87 83.40 494.00 70.00 C 493.13 56.60 499.52 35.21 484.00 32.00 Z"/>
</g>
<g fill="None" fill-opacity="0.0" stroke="#FFFFFF" stroke-opacity="1.00" stroke-width="0.3"><path d="
M 283.00 144.00 
C 275.20 134.78 266.73 129.50 256.23 123.77 C 245.73 118.04 234.23 114.00 222.00 112.00 C 209.77 110.00 192.21 109.60 180.02 112.02 C 167.84 114.45 156.79 118.69 146.23 124.23 C 135.67 129.77 128.27 135.90 120.08 144.08 C 111.90 152.26 105.66 160.38 99.77 170.77 C 93.88 181.16 90.51 192.91 87.98 204.98 C 85.45 217.04 85.25 234.97 88.00 247.00 C 90.75 259.02 93.52 270.99 99.70 281.30 C 105.87 291.62 111.19 299.35 119.25 307.75 C 127.31 316.16 135.18 321.59 145.32 327.68 C 155.46 333.77 167.94 337.19 179.99 340.01 C 192.04 342.83 209.81 342.19 222.00 340.00 C 234.18 337.81 245.93 334.21 256.31 328.31 C 266.68 322.40 274.52 317.71 282.75 308.75 C 290.99 299.80 297.66 293.85 303.22 283.22 C 308.78 272.60 313.02 261.57 316.00 249.00 C 318.98 236.43 317.99 220.35 316.00 207.00 C 314.01 193.65 301.04 193.01 289.07 187.93 C 277.11 182.85 268.75 180.82 255.23 175.77 C 241.71 170.73 249.02 159.14 253.23 146.23 C 257.44 133.32 272.16 140.53 283.00 144.00
M 206.00 182.00 
C 237.97 185.86 256.00 224.32 236.75 250.75 C 217.49 277.17 177.69 274.16 162.70 245.30 C 147.70 216.45 171.70 177.85 206.00 182.00 Z"/>
</g>
<g fill="None" fill-opacity="0.0" stroke="#FFFFFF" stroke-opacity="0.99" stroke-width="0.3"><path d="
M 266.00 142.00 
C 256.87 140.41 250.86 155.33 250.00 164.00 C 249.14 172.66 266.62 175.13 273.78 178.22 C 280.93 181.32 292.04 185.41 300.32 188.68 C 308.61 191.94 319.33 195.13 327.98 199.02 C 336.62 202.92 346.02 204.78 354.98 209.02 C 363.93 213.27 373.38 214.81 382.77 219.23 C 392.16 223.65 401.08 227.63 405.22 216.22 C 409.37 204.82 413.14 197.56 401.23 193.77 C 389.31 189.98 384.65 187.11 374.23 183.77 C 363.81 180.43 356.73 176.20 347.02 172.98 C 337.32 169.75 329.40 166.10 320.07 162.93 C 310.75 159.75 301.51 155.33 292.23 152.77 C 282.95 150.21 274.86 143.54 266.00 142.00 Z"/>
</g>
<g fill="None" fill-opacity="0.0" stroke="#000000" stroke-opacity="0.00" stroke-width="0.3"><path d="
M 206.00 182.00 
C 171.70 177.85 147.70 216.45 162.70 245.30 C 177.69 274.16 217.49 277.17 236.75 250.75 C 256.00 224.32 237.97 185.86 206.00 182.00
M 203.00 221.00 
C 209.00 221.85 207.25 232.24 200.99 230.99 C 194.74 229.74 196.87 220.13 203.00 221.00 Z"/>
</g>
<g fill="None" fill-opacity="0.0" stroke="#FFFFFF" stroke-opacity="0.96" stroke-width="0.3"><path d="
M 203.00 221.00 
C 196.87 220.13 194.74 229.74 200.99 230.99 C 207.25 232.24 209.00 221.85 203.00 221.00 Z"/>
</g>
<g fill="#000000" fill-opacity="0.00" stroke="None">
<path d="
M 0.00 457.00 
L 496.00 457.00
L 496.00 0.00
L 0.00 0.00
L 0.00 457.00
M 46.00 75.00 
C 46.00 175.33 46.00 275.67 46.00 376.00
C 59.38 375.99 72.60 376.01 86.00 376.00 C 99.40 375.99 112.54 376.02 126.00 376.00 C 139.46 375.98 153.51 376.04 167.00 376.00 C 180.49 375.96 193.50 376.09 207.00 376.00 C 220.50 375.91 233.37 376.19 247.00 376.00 C 260.63 375.81 274.16 376.41 288.00 376.00 C 301.84 375.59 313.71 376.94 328.00 376.00 C 342.29 375.06 353.79 378.03 369.00 376.00 C 384.21 373.97 390.97 379.81 390.00 395.00 C 389.03 410.19 391.51 421.11 375.00 420.00 C 358.49 418.89 348.89 420.51 334.00 420.00 C 319.11 419.49 308.11 420.23 294.00 420.00 C 279.89 419.77 266.77 420.11 253.00 420.00 C 239.23 419.89 226.58 420.06 213.00 420.00 C 199.42 419.94 186.55 420.05 173.00 420.00 C 159.45 419.95 145.56 420.08 132.00 420.00 C 118.44 419.92 105.60 420.17 92.00 420.00 C 78.40 419.83 64.70 420.35 51.00 420.00 C 37.30 419.65 24.93 420.79 11.00 420.00 C -2.93 419.21 2.63 400.86 2.00 389.00 C 1.37 377.14 2.29 360.73 2.00 348.00 C 1.71 335.27 2.12 321.14 2.00 308.00 C 1.88 294.86 2.04 280.28 2.00 267.00 C 1.96 253.72 1.97 240.28 2.00 227.00 C 2.03 213.72 1.89 200.24 2.00 187.00 C 2.11 173.76 1.75 159.04 2.00 146.00 C 2.25 132.96 1.43 118.50 2.00 106.00 C 2.57 93.50 0.76 76.35 2.00 65.00 C 3.24 53.65 -3.75 34.38 9.01 32.01 C 21.77 29.64 35.82 33.04 49.00 32.00 C 62.18 30.96 76.64 32.49 90.00 32.00 C 103.36 31.51 116.55 32.22 130.00 32.00 C 143.45 31.78 157.50 32.13 171.00 32.00 C 184.50 31.87 197.45 32.11 211.00 32.00 C 224.55 31.89 237.25 32.16 251.00 32.00 C 264.75 31.84 277.90 32.32 292.00 32.00 C 306.10 31.68 317.13 32.70 332.00 32.00 C 346.87 31.30 356.52 33.51 373.00 32.00 C 389.48 30.49 389.41 39.28 390.00 55.00 C 390.59 70.72 385.81 76.94 370.00 75.00 C 354.19 73.06 343.57 75.89 329.00 75.00 C 314.43 74.11 302.96 75.39 289.00 75.00 C 275.04 74.61 261.70 75.18 248.00 75.00 C 234.30 74.82 221.54 75.08 208.00 75.00 C 194.46 74.92 181.53 75.04 168.00 75.00 C 154.47 74.96 140.53 75.02 127.00 75.00 C 113.47 74.98 100.54 75.01 87.00 75.00 C 73.46 74.99 59.57 75.01 46.00 75.00
M 484.00 32.00 
C 499.52 35.21 493.13 56.60 494.00 70.00 C 494.87 83.40 493.62 104.10 494.00 119.00 C 494.38 133.90 493.88 151.37 494.00 167.00 C 494.12 182.63 494.04 200.05 494.00 216.00 C 493.96 231.95 494.23 248.97 494.00 265.00 C 493.77 281.03 494.59 297.00 494.00 313.00 C 493.41 329.00 495.31 346.12 494.00 362.00 C 492.69 377.88 497.05 395.31 493.67 410.67 C 490.29 426.03 466.69 418.58 455.00 420.00 C 443.31 421.42 418.97 422.97 420.00 406.00 C 421.03 389.03 419.55 374.54 420.00 358.00 C 420.45 341.46 419.80 325.36 420.00 309.00 C 420.20 292.64 419.93 276.20 420.00 260.00 C 420.07 243.80 420.02 228.05 420.00 212.00 C 419.98 195.95 420.11 178.83 420.00 163.00 C 419.89 147.17 420.28 129.27 420.00 114.00 C 419.72 98.73 420.65 80.06 420.00 66.00 C 419.35 51.94 417.24 30.34 435.00 32.00 C 452.77 33.66 466.18 28.31 483.00 32.00
M 283.00 144.00 
C 272.16 140.53 257.44 133.32 253.23 146.23 C 249.02 159.14 241.71 170.73 255.23 175.77 C 268.75 180.82 277.11 182.85 289.07 187.93 C 301.04 193.01 314.01 193.65 316.00 207.00 C 317.99 220.35 318.98 236.43 316.00 249.00 C 313.02 261.57 308.78 272.60 303.22 283.22 C 297.66 293.85 290.99 299.80 282.75 308.75 C 274.52 317.71 266.68 322.40 256.31 328.31 C 245.93 334.21 234.18 337.81 222.00 340.00 C 209.81 342.19 192.04 342.83 179.99 340.01 C 167.94 337.19 155.46 333.77 145.32 327.68 C 135.18 321.59 127.31 316.16 119.25 307.75 C 111.19 299.35 105.87 291.62 99.70 281.30 C 93.52 270.99 90.75 259.02 88.00 247.00 C 85.25 234.97 85.45 217.04 87.98 204.98 C 90.51 192.91 93.88 181.16 99.77 170.77 C 105.66 160.38 111.90 152.26 120.08 144.08 C 128.27 135.90 135.67 129.77 146.23 124.23 C 156.79 118.69 167.84 114.45 180.02 112.02 C 192.21 109.60 209.77 110.00 222.00 112.00 C 234.23 114.00 245.73 118.04 256.23 123.77 C 266.73 129.50 275.20 134.78 283.00 144.00
M 266.00 142.00 
C 274.86 143.54 282.95 150.21 292.23 152.77 C 301.51 155.33 310.75 159.75 320.07 162.93 C 329.40 166.10 337.32 169.75 347.02 172.98 C 356.73 176.20 363.81 180.43 374.23 183.77 C 384.65 187.11 389.31 189.98 401.23 193.77 C 413.14 197.56 409.37 204.82 405.22 216.22 C 401.08 227.63 392.16 223.65 382.77 219.23 C 373.38 214.81 363.93 213.27 354.98 209.02 C 346.02 204.78 336.62 202.92 327.98 199.02 C 319.33 195.13 308.61 191.94 300.32 188.68 C 292.04 185.41 280.93 181.32 273.78 178.22 C 266.62 175.13 249.14 172.66 250.00 164.00 C 250.86 155.33 256.87 140.41 266.00 142.00 Z"/>
</g>
<g fill="#FFFFFF" fill-opacity="1.00" stroke="None">
<path d="
M 46.00 75.00 
C 59.57 75.01 73.46 74.99 87.00 75.00 C 100.54 75.01 113.47 74.98 127.00 75.00 C 140.53 75.02 154.47 74.96 168.00 75.00 C 181.53 75.04 194.46 74.92 208.00 75.00 C 221.54 75.08 234.30 74.82 248.00 75.00 C 261.70 75.18 275.04 74.61 289.00 75.00 C 302.96 75.39 314.43 74.11 329.00 75.00 C 343.57 75.89 354.19 73.06 370.00 75.00 C 385.81 76.94 390.59 70.72 390.00 55.00 C 389.41 39.28 389.48 30.49 373.00 32.00 C 356.52 33.51 346.87 31.30 332.00 32.00 C 317.13 32.70 306.10 31.68 292.00 32.00 C 277.90 32.32 264.75 31.84 251.00 32.00 C 237.25 32.16 224.55 31.89 211.00 32.00 C 197.45 32.11 184.50 31.87 171.00 32.00 C 157.50 32.13 143.45 31.78 130.00 32.00 C 116.55 32.22 103.36 31.51 90.00 32.00 C 76.64 32.49 62.18 30.96 49.00 32.00 C 35.82 33.04 21.77 29.64 9.01 32.01 C -3.75 34.38 3.24 53.65 2.00 65.00 C 0.76 76.35 2.57 93.50 2.00 106.00 C 1.43 118.50 2.25 132.96 2.00 146.00 C 1.75 159.04 2.11 173.76 2.00 187.00 C 1.89 200.24 2.03 213.72 2.00 227.00 C 1.97 240.28 1.96 253.72 2.00 267.00 C 2.04 280.28 1.88 294.86 2.00 308.00 C 2.12 321.14 1.71 335.27 2.00 348.00 C 2.29 360.73 1.37 377.14 2.00 389.00 C 2.63 400.86 -2.93 419.21 11.00 420.00 C 24.93 420.79 37.30 419.65 51.00 420.00 C 64.70 420.35 78.40 419.83 92.00 420.00 C 105.60 420.17 118.44 419.92 132.00 420.00 C 145.56 420.08 159.45 419.95 173.00 420.00 C 186.55 420.05 199.42 419.94 213.00 420.00 C 226.58 420.06 239.23 419.89 253.00 420.00 C 266.77 420.11 279.89 419.77 294.00 420.00 C 308.11 420.23 319.11 419.49 334.00 420.00 C 348.89 420.51 358.49 418.89 375.00 420.00 C 391.51 421.11 389.03 410.19 390.00 395.00 C 390.97 379.81 384.21 373.97 369.00 376.00 C 353.79 378.03 342.29 375.06 328.00 376.00 C 313.71 376.94 301.84 375.59 288.00 376.00 C 274.16 376.41 260.63 375.81 247.00 376.00 C 233.37 376.19 220.50 375.91 207.00 376.00 C 193.50 376.09 180.49 375.96 167.00 376.00 C 153.51 376.04 139.46 375.98 126.00 376.00 C 112.54 376.02 99.40 375.99 86.00 376.00 C 72.60 376.01 59.38 375.99 46.00 376.00
C 46.00 275.67 46.00 175.33 46.00 75.00 Z"/>
</g>
<g fill="#FFFFFF" fill-opacity="1.00" stroke="None">
<path d="
M 483.00 32.00 
C 466.18 28.31 452.77 33.66 435.00 32.00 C 417.24 30.34 419.35 51.94 420.00 66.00 C 420.65 80.06 419.72 98.73 420.00 114.00 C 420.28 129.27 419.89 147.17 420.00 163.00 C 420.11 178.83 419.98 195.95 420.00 212.00 C 420.02 228.05 420.07 243.80 420.00 260.00 C 419.93 276.20 420.20 292.64 420.00 309.00 C 419.80 325.36 420.45 341.46 420.00 358.00 C 419.55 374.54 421.03 389.03 420.00 406.00 C 418.97 422.97 443.31 421.42 455.00 420.00 C 466.69 418.58 490.29 426.03 493.67 410.67 C 497.05 395.31 492.69 377.88 494.00 362.00 C 495.31 346.12 493.41 329.00 494.00 313.00 C 494.59 297.00 493.77 281.03 494.00 265.00 C 494.23 248.97 493.96 231.95 494.00 216.00 C 494.04 200.05 494.12 182.63 494.00 167.00 C 493.88 151.37 494.38 133.90 494.00 119.00 C 493.62 104.10 494.87 83.40 494.00 70.00 C 493.13 56.60 499.52 35.21 484.00 32.00 Z"/>
</g>
<g fill="#FFFFFF" fill-opacity="1.00" stroke="None">
<path d="
M 283.00 144.00 
C 275.20 134.78 266.73 129.50 256.23 123.77 C 245.73 118.04 234.23 114.00 222.00 112.00 C 209.77 110.00 192.21 109.60 180.02 112.02 C 167.84 114.45 156.79 118.69 146.23 124.23 C 135.67 129.77 128.27 135.90 120.08 144.08 C 111.90 152.26 105.66 160.38 99.77 170.77 C 93.88 181.16 90.51 192.91 87.98 204.98 C 85.45 217.04 85.25 234.97 88.00 247.00 C 90.75 259.02 93.52 270.99 99.70 281.30 C 105.87 291.62 111.19 299.35 119.25 307.75 C 127.31 316.16 135.18 321.59 145.32 327.68 C 155.46 333.77 167.94 337.19 179.99 340.01 C 192.04 342.83 209.81 342.19 222.00 340.00 C 234.18 337.81 245.93 334.21 256.31 328.31 C 266.68 322.40 274.52 317.71 282.75 308.75 C 290.99 299.80 297.66 293.85 303.22 283.22 C 308.78 272.60 313.02 261.57 316.00 249.00 C 318.98 236.43 317.99 220.35 316.00 207.00 C 314.01 193.65 301.04 193.01 289.07 187.93 C 277.11 182.85 268.75 180.82 255.23 175.77 C 241.71 170.73 249.02 159.14 253.23 146.23 C 257.44 133.32 272.16 140.53 283.00 144.00
M 206.00 182.00 
C 237.97 185.86 256.00 224.32 236.75 250.75 C 217.49 277.17 177.69 274.16 162.70 245.30 C 147.70 216.45 171.70 177.85 206.00 182.00 Z"/>
</g>
<g fill="#FFFFFF" fill-opacity="0.99" stroke="None">
<path d="
M 266.00 142.00 
C 256.87 140.41 250.86 155.33 250.00 164.00 C 249.14 172.66 266.62 175.13 273.78 178.22 C 280.93 181.32 292.04 185.41 300.32 188.68 C 308.61 191.94 319.33 195.13 327.98 199.02 C 336.62 202.92 346.02 204.78 354.98 209.02 C 363.93 213.27 373.38 214.81 382.77 219.23 C 392.16 223.65 401.08 227.63 405.22 216.22 C 409.37 204.82 413.14 197.56 401.23 193.77 C 389.31 189.98 384.65 187.11 374.23 183.77 C 363.81 180.43 356.73 176.20 347.02 172.98 C 337.32 169.75 329.40 166.10 320.07 162.93 C 310.75 159.75 301.51 155.33 292.23 152.77 C 282.95 150.21 274.86 143.54 266.00 142.00 Z"/>
</g>
<g fill="#000000" fill-opacity="0.00" stroke="None">
<path d="
M 206.00 182.00 
C 171.70 177.85 147.70 216.45 162.70 245.30 C 177.69 274.16 217.49 277.17 236.75 250.75 C 256.00 224.32 237.97 185.86 206.00 182.00
M 203.00 221.00 
C 209.00 221.85 207.25 232.24 200.99 230.99 C 194.74 229.74 196.87 220.13 203.00 221.00 Z"/>
</g>
<g fill="#FFFFFF" fill-opacity="0.96" stroke="None">
<path d="
M 203.00 221.00 
C 196.87 220.13 194.74 229.74 200.99 230.99 C 207.25 232.24 209.00 221.85 203.00 221.00 Z"/>
</g>
</svg>